<svg width="70" height="85" viewBox="0 0 70 85" fill="none" xmlns="http://www.w3.org/2000/svg">
<path d="M24.0076 50.2051V21.6659H0V17.5727H12.0068V15.6598H0V0H28.0357V4.09316H4.02805V11.5666H28.0357V15.6598H16.0289V17.5727H28.0357V50.2051H24.0076Z" fill="#0500FE"/>
<path d="M60.9443 17.5728H56.9163V40.1416H60.9443V17.5728Z" fill="#0500FE"/>
<path d="M65.6268 26.8462H57.9336V30.8681H65.6268V26.8462Z" fill="#0500FE"/>
<path d="M70.0001 57.8627V53.7696H56.4523V50.823H64.4489C67.3465 50.823 69.7026 48.4229 69.7026 45.4822C69.7026 43.4683 68.59 41.6386 66.8407 40.7237V0H62.8127V40.1415H51.4366V29.573L54.3163 26.6442L51.4723 23.751L35.9253 39.5593L38.7693 42.4525L47.4085 33.6661V40.1415H47.3014C44.4038 40.1415 42.0477 42.5416 42.0477 45.4822C42.0477 48.4229 44.4038 50.823 47.3014 50.823H52.4242V53.7696H36.1454V57.8627H49.2054L44.6121 62.5322L47.4561 65.4253L52.4183 60.3757V66.8332H40.2806V70.9264H52.4183V74.3067H45.8615C42.964 74.3067 40.6078 76.7067 40.6078 79.6533C40.6078 82.5999 42.964 84.9941 45.8615 84.9941H63.0031C65.9006 84.9941 68.2568 82.594 68.2568 79.6533C68.2568 76.7127 65.9006 74.3067 63.0031 74.3067H56.4463V70.9264H68.584V66.8332H56.4463V57.8568H69.9941L70.0001 57.8627ZM63.015 77.9008C63.9669 77.9008 64.7464 78.6909 64.7464 79.6593C64.7464 80.6276 63.9729 81.4177 63.015 81.4177H45.8734C44.9215 81.4177 44.142 80.6276 44.142 79.6593C44.142 78.6909 44.9155 77.9008 45.8734 77.9008H63.015ZM47.3074 47.2407C46.3554 47.2407 45.576 46.4506 45.576 45.4822C45.576 44.5139 46.3494 43.7238 47.3074 43.7238H64.4489C65.4009 43.7238 66.1803 44.5139 66.1803 45.4822C66.1803 46.4506 65.4068 47.2407 64.4489 47.2407H47.3074Z" fill="#0500FE"/>
<path d="M12.0067 50.2051V34.0107L3.70667 42.4465L0.856689 39.5534L16.4037 23.7451L19.2536 26.6442L16.0288 29.9175V50.2051H12.0067Z" fill="#0500FE"/>
<path d="M56.9163 15.6598V4.09316H35.5266V0H60.9444V15.6598H56.9163Z" fill="#0500FE"/>
</svg>
