<svg width="329" height="96" viewBox="0 0 329 96" fill="none" xmlns="http://www.w3.org/2000/svg">
<path d="M328 48C328 54.1298 323.736 60.182 315.505 65.8606C307.304 71.5179 295.373 76.6527 280.539 80.9812C250.884 89.6342 209.858 95 164.5 95C119.142 95 78.1156 89.6342 48.461 80.9812C33.6272 76.6527 21.6955 71.5179 13.4951 65.8606C5.26376 60.182 1 54.1298 1 48C1 41.8702 5.26376 35.818 13.4951 30.1394C21.6955 24.4821 33.6272 19.3473 48.461 15.0188C78.1156 6.36585 119.142 1 164.5 1C209.858 1 250.884 6.36585 280.539 15.0188C295.373 19.3473 307.304 24.4821 315.505 30.1394C323.736 35.818 328 41.8702 328 48Z" fill="#FFEC00" stroke="#FFEC00" stroke-width="2"/>
<path d="M60.6133 29.0312V52.6562H54.9883V41.582H50.5938V37.082H54.9883V29.0312H60.6133ZM61.3164 56.5234V61.0234H38.6055V50.6523H44.2305V56.5234H61.3164ZM51.7891 30.9297V35.3945H45.8477C45.9004 38.8574 47.6582 42.707 52.9492 44.3594L50.2422 48.8242C46.7441 47.7344 44.4238 45.625 43.0352 42.9531C41.5938 45.9062 39.168 48.2441 35.4414 49.3867L32.5586 44.8516C38.1484 43.1992 39.959 39.1562 40.082 35.3945H34.1055V30.9297H51.7891ZM90.4961 30.2969V33.0039C90.4961 35.3594 90.4961 38.0137 89.9336 41.2656H93.7656V45.7305H81.707V49.5273H90.3906V61.4805H84.7656V53.8867H66.9766V49.5273H76.0117V45.7305H64.0586V41.2656H84.2383C84.6953 38.7344 84.8008 36.6777 84.8711 34.7617H67.6094V30.2969H90.4961ZM130.68 28.9609V45.3789H125.055V39.6484H120.168V44.7812H104.242V30.2617H109.902V33.4258H114.613V30.2617H120.168V35.1484H125.055V28.9609H130.68ZM130.68 46.3633V55.7852H114.402V56.8047H131.453V61.1992H108.707V51.7773H125.055V50.7578H108.707V46.3633H130.68ZM109.902 40.3867H114.613V37.7148H109.902V40.3867ZM146.359 31.9844V45.0273H140.348V49.457C143.09 49.4219 145.691 49.2637 148.504 48.7539L148.996 53.2891C144.988 54.0625 141.402 54.0977 137.324 54.0977H134.934V40.668H140.945V36.4141H134.898V31.9844H146.359ZM162.426 28.9609V61.4805H157.117V28.9609H162.426ZM155.641 29.4531V60.0039H150.402V44.2188H147.59V39.6836H150.402V29.4531H155.641ZM183.73 30.543V35.0078H177.859C178.229 37.9434 180.162 40.9316 185.102 42.25L182.43 46.5742C178.826 45.625 176.418 43.6562 174.941 41.1602C173.5 43.9551 171.039 46.1699 167.207 47.2422L164.395 42.7773C169.527 41.4062 171.566 38.1367 171.953 35.0078H165.906V30.543H183.73ZM191.254 28.9609V35.5352H195.297V40.1055H191.254V46.9609H185.594V28.9609H191.254ZM175.047 48.0859V50.4414H185.594V48.0859H191.254V61.1992H169.422V48.0859H175.047ZM175.047 56.6992H185.594V54.7305H175.047V56.6992ZM223.949 28.9609V61.4805H218.219V28.9609H223.949ZM214.105 32.3008C214.105 42.4961 211.223 50.6172 199.164 56.2422L196.281 51.8125C204.402 47.9453 207.654 43.4805 208.375 36.6953H198.145V32.3008H214.105ZM264.977 44.3945V48.7891H253.27V53.8164H247.539V48.7891H235.305V44.3945H264.977ZM261.742 56.5234V61.0234H238.609V51.1445H244.305V56.5234H261.742ZM250.141 29.4883C257.242 29.4883 262.059 32.1602 262.059 36.3789C262.059 40.5625 257.242 43.1992 250.141 43.1992C242.969 43.1992 238.152 40.5625 238.152 36.3789C238.152 32.1602 242.969 29.4883 250.141 29.4883ZM250.141 33.8828C246.484 33.8828 244.234 34.6211 244.27 36.3789C244.234 37.9961 246.484 38.6992 250.141 38.7344C253.762 38.6992 255.977 37.9961 255.977 36.3789C255.977 34.6211 253.762 33.8828 250.141 33.8828ZM296.16 43.8672V48.2969H266.418V43.8672H278.547V41.7578H269.934V30.3672H292.68V34.7266H275.523V37.3633H292.82V41.7578H284.102V43.8672H296.16ZM281.184 49.4219C288.285 49.4219 292.539 51.6016 292.574 55.5391C292.539 59.3711 288.285 61.5859 281.184 61.5859C274.012 61.5859 269.688 59.3711 269.688 55.5391C269.688 51.6016 274.012 49.4219 281.184 49.4219ZM281.184 53.6758C277.141 53.6758 275.418 54.2383 275.453 55.5391C275.418 56.875 277.141 57.332 281.184 57.332C285.121 57.332 286.914 56.875 286.914 55.5391C286.914 54.2383 285.121 53.6758 281.184 53.6758Z" fill="#0500FE"/>
</svg>
