<svg width="70" height="85" viewBox="0 0 70 85" fill="none" xmlns="http://www.w3.org/2000/svg">
<path d="M24.0076 50.2051V21.6659H0V17.5727H12.0068V15.6598H0V0H28.0357V4.09316H4.02805V11.5666H28.0357V15.6598H16.0289V17.5727H28.0357V50.2051H24.0076Z" fill="#FFEC00"/>
<path d="M60.9443 17.5728H56.9163V40.1416H60.9443V17.5728Z" fill="#FFEC00"/>
<path d="M65.6269 26.8462H57.9337V30.8681H65.6269V26.8462Z" fill="#FFEC00"/>
<path d="M70 57.8627V53.7696H56.4522V50.823H64.4488C67.3463 50.823 69.7025 48.4229 69.7025 45.4822C69.7025 43.4683 68.5899 41.6386 66.8406 40.7237V0H62.8125V40.1415H51.4364V29.573L54.3162 26.6442L51.4721 23.751L35.9252 39.5593L38.7692 42.4525L47.4084 33.6661V40.1415H47.3013C44.4037 40.1415 42.0476 42.5416 42.0476 45.4822C42.0476 48.4229 44.4037 50.823 47.3013 50.823H52.4241V53.7696H36.1453V57.8627H49.2052L44.612 62.5322L47.456 65.4253L52.4182 60.3757V66.8332H40.2805V70.9264H52.4182V74.3067H45.8614C42.9638 74.3067 40.6077 76.7067 40.6077 79.6533C40.6077 82.5999 42.9638 84.9941 45.8614 84.9941H63.0029C65.9005 84.9941 68.2567 82.594 68.2567 79.6533C68.2567 76.7127 65.9005 74.3067 63.0029 74.3067H56.4462V70.9264H68.5839V66.8332H56.4462V57.8568H69.994L70 57.8627ZM63.0148 77.9008C63.9668 77.9008 64.7463 78.6909 64.7463 79.6593C64.7463 80.6276 63.9728 81.4177 63.0148 81.4177H45.8733C44.9213 81.4177 44.1419 80.6276 44.1419 79.6593C44.1419 78.6909 44.9154 77.9008 45.8733 77.9008H63.0148ZM47.3072 47.2407C46.3553 47.2407 45.5758 46.4506 45.5758 45.4822C45.5758 44.5139 46.3493 43.7238 47.3072 43.7238H64.4488C65.4007 43.7238 66.1802 44.5139 66.1802 45.4822C66.1802 46.4506 65.4067 47.2407 64.4488 47.2407H47.3072Z" fill="#FFEC00"/>
<path d="M12.0068 50.2051V34.0107L3.70673 42.4465L0.85675 39.5534L16.4037 23.7451L19.2537 26.6442L16.0289 29.9175V50.2051H12.0068Z" fill="#FFEC00"/>
<path d="M56.9163 15.6598V4.09316H35.5266V0H60.9443V15.6598H56.9163Z" fill="#FFEC00"/>
</svg>
