<svg width="297" height="66" viewBox="0 0 297 66" fill="none" xmlns="http://www.w3.org/2000/svg">
<path d="M62.5209 28.1603C62.5209 35.0294 60.1937 36.7822 55.7518 36.7822C51.8927 36.7822 49.7821 34.829 49.7821 31.6623V21.7614L48.3251 21.827C48.1794 21.827 44.6117 23.106 43.45 23.0404C42.7963 22.9748 41.4142 22.84 39.3744 22.3007V27.8907C39.3744 29.7747 39.2287 32.0668 38.6459 33.211C37.4803 35.4995 30.3489 35.7692 28.2382 34.0856C27.7302 33.6811 27.5845 33.0762 27.5097 32.2672H16.8106C16.7397 33.4807 13.5343 35.095 10.8408 35.095C6.76519 35.095 4.87503 33.3422 4.87503 30.7185V14.1526C4.87503 11.8641 3.27234 11.1899 1.23648 10.5158C0.437099 10.3153 0 9.50637 0 8.83221C0 7.95764 0.728499 6.94459 2.32726 7.07942C4.21742 7.14501 13.3886 7.48391 15.2827 8.02323C16.4483 8.42772 16.9563 8.96704 16.9563 9.50637C16.8106 10.1805 16.8106 10.8547 16.8106 11.7292V15.7013H27.5097V11.3903C27.5097 9.16747 25.8361 8.42772 23.942 7.8884C22.3393 7.41831 22.0519 4.25162 24.8871 4.45204C26.7064 4.45204 36.2399 4.92213 37.9134 5.53069C39.1499 5.86594 39.6618 6.33967 39.5161 6.94459C39.3704 7.68433 39.3704 8.62815 39.3704 9.84162V18.1938C41.4063 18.2594 43.8832 18.3287 46.8681 18.1938C47.888 18.1938 48.9039 18.1938 49.7781 18.1282V10.5194C49.7781 6.54738 48.6873 5.93882 44.6826 4.45933C43.4461 3.98925 42.4262 2.9106 42.9342 1.5623C43.45 0.21035 44.4699 -0.0593113 46.5097 0.00992595C49.3489 0.144756 60.3354 1.62789 61.5759 2.16357C62.958 2.56806 63.3243 3.7123 63.0329 4.52128C62.6706 5.39586 62.5249 6.74416 62.5249 8.49331V28.1603H62.5209ZM27.5845 65.0675C23.5089 65.0019 19.1418 64.9326 19.1418 60.1516V55.7059C19.1418 53.8875 18.6338 53.2826 17.0311 53.0129C15.5741 52.6776 15.4284 52.0035 15.5032 51.1253C15.5781 50.4511 16.3774 49.7114 17.4682 49.777C20.1617 49.7077 27.7302 49.6421 31.5145 50.4511H45.2693L45.3402 43.378H30.1283C27.6554 43.6476 27.1435 44.0521 24.6705 44.5222C23.2135 44.7919 20.3783 44.3218 16.6649 42.569C15.645 42.0989 15.4284 40.4809 15.7907 40.0765C16.3735 39.4023 17.0272 39.2019 18.9213 39.3367C22.1976 39.672 24.3082 39.8068 27.7263 39.8068L37.8426 39.876C45.7025 39.876 46.431 39.6064 47.2303 39.2019C48.9039 38.3929 57.8546 38.3929 59.8196 39.067C61.2766 39.5371 62.0011 40.7506 61.3475 41.1551C60.7647 41.6944 60.4024 42.2993 60.2567 43.1083L58.3626 50.5823C59.162 50.5167 60.111 50.7171 60.6898 50.9868C61.1978 51.322 60.9812 53.749 60.2527 53.8146C59.7448 53.9494 58.0712 53.9494 56.7599 53.9494H33.6173V58.9345C33.6173 60.8877 34.708 61.4926 36.6021 61.4926H47.5178C49.1914 61.4926 51.0107 61.427 52.6134 60.6181C53.3419 60.2828 54.5035 59.8783 56.3267 59.7435C58.146 59.6779 61.2766 59.8127 62.5131 60.0131C64.9151 60.4832 65.0608 62.1012 64.986 63.045C64.8403 64.1892 63.9661 65.0638 61.9303 65.0638H27.5806L27.5845 65.0675ZM27.5136 19.4037H16.8145V28.5612H27.5136V19.4037Z" fill="url(#paint0_linear_15_819)"/>
<path d="M123.786 53.1058C123.786 59.6914 122.553 62.3133 118.124 62.3787C114.786 62.4442 112.752 60.4296 112.752 56.7314V30.4545C111.88 30.7236 111.083 30.8581 110.577 30.8581C108.908 30.8581 106.367 30.6581 102.668 29.5127C102.668 30.0508 101.797 30.8581 100.784 30.8581H91.0573V40.4692C91.0573 42.8875 92.7262 43.2256 94.6149 43.2256C97.2261 43.2256 103.469 42.2838 109.709 39.8001C110.797 39.331 112.175 42.1529 110.651 42.9602C105.354 45.6475 92.2196 48.2039 85.7603 48.2039C81.335 48.2039 78.284 46.5239 78.284 42.8947V33.4873C78.284 31.0691 78.2133 30.2618 75.3076 29.7236C74.2906 29.589 74 28.5817 74 28.0435C74 27.3053 75.0877 26.429 76.1047 26.429C78.7159 26.429 85.5404 26.7635 88.0063 27.2363H91.6346L91.7799 15.4069C89.6752 15.4069 86.5535 16.2142 84.0876 16.6179C82.564 16.887 79.1518 16.3488 75.8141 14.8033C74.9424 14.3996 74.5811 13.5269 74.5811 12.9887C74.5811 12.1814 75.4529 11.5087 76.8311 11.7123C78.4999 11.8469 82.2734 11.9814 83.6517 12.0469C87.3506 12.2469 86.6281 12.1814 90.0364 12.1123C92.3571 12.0469 93.1581 11.8432 93.9552 11.5741C95.9146 10.6323 102.299 10.5668 104.695 11.1705C106.293 11.505 106.799 13.3887 106.002 13.9924C105.276 14.7306 104.84 15.6724 104.624 16.4106L102.955 26.5599C103.316 26.2908 103.897 26.1562 104.624 26.0908C107.31 26.1599 108.833 26.2253 112.752 26.2253V12.516C112.752 8.28317 111.81 7.94498 108.107 6.60314C106.874 6.13404 106.874 4.58855 107.09 4.11582C107.235 3.78126 108.032 2.63579 110.282 3.03943C111.59 3.03943 121.603 4.25036 122.836 4.71946C124.214 5.12311 124.579 5.79585 124.289 6.53404C123.927 7.40679 123.782 8.75227 123.782 10.4978V53.1058H123.786ZM129.228 9.55592C129.228 5.32311 128.502 4.98492 124.728 3.64308C123.495 3.17398 123.13 1.89396 123.566 1.0903C124.073 0.0830131 125.235 -0.0515349 126.688 0.0139209C128.211 0.0793767 138.228 1.22485 139.461 1.75941C140.769 2.16305 141.205 2.83579 140.914 3.57399C140.478 4.44673 140.333 5.79221 140.333 7.5377V55.3895C140.333 62.5787 138.735 65.0006 134.525 65.0661C131.113 65.1315 129.228 62.9169 129.228 59.2878V9.55592Z" fill="url(#paint1_linear_15_819)"/>
<path d="M177.641 51.2454V46.1862C177.641 43.3536 175.745 42.6126 173.26 42.0724C172.091 41.8716 171.435 40.4516 171.799 39.5756C172.308 38.6302 174.208 38.4294 175.377 38.4294C176.547 38.4294 192.386 38.9003 191.948 40.7911C191.802 41.5321 191.509 42.7477 191.509 43.9632V51.2491H198.517C203.114 51.3148 203.845 50.979 204.939 50.6431C207.787 49.632 208.372 49.2268 214.502 49.2925C220.344 49.3583 221 51.3841 221 52.8661C221 54.0123 220.269 54.8227 218.227 55.0234C216.256 55.0891 214.431 55.0891 212.385 55.0891C209.099 54.8884 206.472 54.819 203.039 54.819H168.145C165.443 54.8847 164.712 55.56 161.722 56.5054C159.826 57.1114 155.3 56.3047 149.386 54.2131C148.438 53.7422 148 53.202 148 52.5267C148 51.5155 148.877 50.5701 150.117 50.7052C152.965 50.906 155.521 51.041 158.294 51.1761C159.901 51.2418 163.768 51.2418 165.961 51.2418H177.641V51.2454ZM191.075 9.15079C191.952 8.95003 192.829 8.40979 193.63 8.00462C195.455 7.26362 203.047 7.32932 205.018 7.7345C207.428 8.20538 208.159 9.08509 208.159 10.1619C208.159 11.7826 206.551 12.7937 204.434 12.7937H174.283V29.4571C174.283 31.1435 175.745 32.0196 177.349 32.0196H192.386C193.409 31.8845 194.357 31.4793 195.305 30.8734C196.838 29.8623 204.576 30.1324 206.255 30.4025C208.664 30.8077 209.32 32.0232 209.32 33.0344C209.32 34.8558 208.151 35.7319 205.887 35.7319H171.21C166.391 35.7976 160.261 35.1916 160.261 30.1981V15.9622C160.261 13.1296 158.653 12.4543 156.828 12.2499C155.588 12.1148 155.003 11.1037 155.003 10.2276C155.003 9.2822 155.734 8.27108 157.121 8.13602C159.601 7.86591 168.437 8.60691 171.866 9.14714H191.067L191.075 9.15079Z" fill="url(#paint2_linear_15_819)"/>
<path d="M227.827 41.8586C224.187 43.197 222 40.7228 222 38.7839C222 37.9157 222.508 36.845 223.604 36.1758C234.671 29.0895 239.986 23.2728 245.813 12.9092C243.193 13.0431 242.681 13.0431 240.423 13.0431C239.403 13.1082 238.457 13.3107 237.803 13.4446C236.199 13.8461 235.329 14.1789 233.725 14.3815C232.634 14.5153 228.702 13.2456 225.715 11.7083C224.478 11.0391 224.403 9.16891 224.77 8.90123C225.207 8.56843 225.861 8.4997 227.61 8.70227C229.722 9.03507 232.196 9.23764 234.891 9.23764C237.732 9.23764 240.427 9.17253 244.067 9.03868C247.708 8.97357 249.091 8.70589 250.111 8.23564C251.132 7.70028 260.087 7.90285 261.253 8.1018C263.003 8.50332 263.365 10.7099 262.636 11.7119C261.691 12.8477 261.253 12.7826 260.599 13.9836C254.772 25.0815 241.814 36.7148 227.831 41.8622L227.827 41.8586ZM268.018 41.9274C269.039 41.6597 271.442 40.8566 273.408 40.6577C275.228 40.4587 279.889 40.7915 281.126 41.2581C282.875 41.9925 283.017 43.396 282.217 43.8662C281.272 44.2678 280.905 44.8031 280.835 45.939L278.939 60.448C279.885 60.5131 280.835 60.5819 281.56 60.8496C282.214 61.2511 281.997 63.8592 281.197 63.9243C280.397 64.0581 279.594 64.0581 278.723 64.0581H253.748C253.239 65.3278 250.032 65.997 248.358 65.997C246.829 65.997 242.168 65.997 241.806 62.3869L240.348 47.1435C240.131 44.6693 238.091 44.5354 236.125 44.2678C235.179 44.2026 235.104 42.4627 235.616 41.9274C236.125 41.5258 239.111 41.0592 241.006 40.9254C242.681 40.9254 247.487 41.2582 248.87 41.5258C250.182 41.8586 252.002 41.9274 253.094 41.9274H268.022H268.018ZM253.748 60.3106H267.364L267.51 45.6713H253.385L253.748 60.3106ZM282.509 21.334C284.183 21.2688 286.295 21.0663 287.316 20.1294C288.261 19.2612 292.56 19.4602 293.943 19.594C296.2 19.6591 297 21.2001 297 22.4011C297 23.9384 296.271 25.2081 294.014 25.2081H282.509V29.6863C282.509 36.505 280.181 38.2449 275.736 38.2449C271.879 38.2449 269.767 36.306 269.767 33.1626V10.4386C269.767 6.49571 268.676 5.89162 264.669 4.42299C263.432 3.95635 262.412 2.88563 262.92 1.54722C263.428 0.208809 264.449 -0.0588731 266.489 0.00985598C269.33 0.143697 280.326 1.61595 281.563 2.14769C282.946 2.54921 283.313 3.68505 283.021 4.4881C282.659 5.35625 282.513 6.69466 282.513 8.43097V21.334H282.509Z" fill="url(#paint3_linear_15_819)"/>
<defs>
<linearGradient id="paint0_linear_15_819" x1="32.5068" y1="111.682" x2="32.5068" y2="31.4509" gradientUnits="userSpaceOnUse">
<stop stop-color="#233DF9"/>
<stop offset="0.21" stop-color="#253EF6"/>
<stop offset="0.34" stop-color="#2D45ED"/>
<stop offset="0.46" stop-color="#3A4FDE"/>
<stop offset="0.56" stop-color="#4D5EC9"/>
<stop offset="0.66" stop-color="#6571AD"/>
<stop offset="0.75" stop-color="#83898C"/>
<stop offset="0.84" stop-color="#A6A564"/>
<stop offset="0.92" stop-color="#CEC536"/>
<stop offset="1" stop-color="#FFEC00"/>
</linearGradient>
<linearGradient id="paint1_linear_15_819" x1="107.502" y1="111.252" x2="107.502" y2="31.1891" gradientUnits="userSpaceOnUse">
<stop stop-color="#233DF9"/>
<stop offset="0.21" stop-color="#253EF6"/>
<stop offset="0.34" stop-color="#2D45ED"/>
<stop offset="0.46" stop-color="#3A4FDE"/>
<stop offset="0.56" stop-color="#4D5EC9"/>
<stop offset="0.66" stop-color="#6571AD"/>
<stop offset="0.75" stop-color="#83898C"/>
<stop offset="0.84" stop-color="#A6A564"/>
<stop offset="0.92" stop-color="#CEC536"/>
<stop offset="1" stop-color="#FFEC00"/>
</linearGradient>
<linearGradient id="paint2_linear_15_819" x1="184.506" y1="111.77" x2="184.506" y2="31.4027" gradientUnits="userSpaceOnUse">
<stop stop-color="#233DF9"/>
<stop offset="0.21" stop-color="#253EF6"/>
<stop offset="0.34" stop-color="#2D45ED"/>
<stop offset="0.46" stop-color="#3A4FDE"/>
<stop offset="0.56" stop-color="#4D5EC9"/>
<stop offset="0.66" stop-color="#6571AD"/>
<stop offset="0.75" stop-color="#83898C"/>
<stop offset="0.84" stop-color="#A6A564"/>
<stop offset="0.92" stop-color="#CEC536"/>
<stop offset="1" stop-color="#FFEC00"/>
</linearGradient>
<linearGradient id="paint3_linear_15_819" x1="259.5" y1="110.863" x2="259.5" y2="31.2201" gradientUnits="userSpaceOnUse">
<stop stop-color="#233DF9"/>
<stop offset="0.21" stop-color="#253EF6"/>
<stop offset="0.34" stop-color="#2D45ED"/>
<stop offset="0.46" stop-color="#3A4FDE"/>
<stop offset="0.56" stop-color="#4D5EC9"/>
<stop offset="0.66" stop-color="#6571AD"/>
<stop offset="0.75" stop-color="#83898C"/>
<stop offset="0.84" stop-color="#A6A564"/>
<stop offset="0.92" stop-color="#CEC536"/>
<stop offset="1" stop-color="#FFEC00"/>
</linearGradient>
</defs>
</svg>
